# xmcd
#
# Track frame offsets: 
#        150
#        17961
#        35505
#        52729
#
# Disc length: 976 seconds
#
# Revision: 0
# Processed by: cddbd v1.5.1PL0 Copyright (c) Steve Scherf et al.
# Submitted via: ExactAudioCopy v0.95a5
#
DISCID=2803ce04
DTITLE=Capgun Cowboys - 2002 Sampler
DYEAR=2002
DGENRE=Country
TTITLE0=Barrel Gun Road (loaded)
TTITLE1=I Know What I Want
TTITLE2=Goes Down Slow
TTITLE3=Barrel Gun Road (unloaded)
EXTD=
EXTT0=
EXTT1=
EXTT2=
EXTT3=
PLAYORDER=
